<svg width="58" height="58" viewBox="0 0 58 58" fill="none" xmlns="http://www.w3.org/2000/svg">
<g id="Frame" clip-path="url(#clip0_1_51)">
<path id="Vector" d="M58 29C58 12.9837 45.0163 0 29 0C12.9837 0 0 12.9837 0 29C0 45.0163 12.9837 58 29 58C45.0163 58 58 45.0163 58 29Z" fill="white"/>
<path id="Vector_2" d="M35.6386 29C35.6386 25.3336 32.6664 22.3615 29 22.3615C25.3336 22.3615 22.3615 25.3336 22.3615 29C22.3615 32.6664 25.3336 35.6386 29 35.6386C32.6664 35.6386 35.6386 32.6664 35.6386 29Z" fill="#007AFF"/>
<path id="Vector_3" d="M41.9277 29C41.9277 21.8602 36.1398 16.0723 29 16.0723C21.8602 16.0723 16.0723 21.8602 16.0723 29C16.0723 36.1398 21.8602 41.9277 29 41.9277C36.1398 41.9277 41.9277 36.1398 41.9277 29Z" stroke="#007AFF" stroke-width="2"/>
<path id="Vector_4" d="M40.5301 18.8675C40.5301 17.3237 39.2787 16.0723 37.7349 16.0723C36.1912 16.0723 34.9398 17.3237 34.9398 18.8675C34.9398 20.4112 36.1912 21.6627 37.7349 21.6627C39.2787 21.6627 40.5301 20.4112 40.5301 18.8675Z" fill="#007AFF"/>
<path id="Vector_5" d="M36.3373 41.2289C36.3373 39.6852 35.0859 38.4337 33.5422 38.4337C31.9984 38.4337 30.747 39.6852 30.747 41.2289C30.747 42.7726 31.9984 44.0241 33.5422 44.0241C35.0859 44.0241 36.3373 42.7726 36.3373 41.2289Z" fill="#007AFF"/>
<path id="Vector_6" d="M19.5663 31.7952C19.5663 30.0585 18.1584 28.6506 16.4217 28.6506C14.685 28.6506 13.2771 30.0585 13.2771 31.7952C13.2771 33.5319 14.685 34.9398 16.4217 34.9398C18.1584 34.9398 19.5663 33.5319 19.5663 31.7952Z" fill="#007AFF"/>
</g>
<defs>
<clipPath id="clip0_1_51">
<rect width="58" height="58" fill="white"/>
</clipPath>
</defs>
</svg>
